<?xml version="1.0" encoding="UTF-8"?>
<!DOCTYPE svg PUBLIC "-//W3C//DTD SVG 1.1//EN" "http://www.w3.org/Graphics/SVG/1.1/DTD/svg11.dtd">
<!-- Creator: CorelDRAW -->
<svg xmlns="http://www.w3.org/2000/svg" xml:space="preserve" width="42mm" height="42mm" version="1.1" style="shape-rendering:geometricPrecision; text-rendering:geometricPrecision; image-rendering:optimizeQuality; fill-rule:evenodd; clip-rule:evenodd"
viewBox="0 0 4200 4200"
 xmlns:xlink="http://www.w3.org/1999/xlink"
 xmlns:xodm="http://www.corel.com/coreldraw/odm/2003">
 <defs>
  <style type="text/css">
   <![CDATA[
    .fil0 {fill:#2B2B2A}
    .fil1 {fill:#2B2B2A;fill-rule:nonzero}
   ]]>
  </style>
 </defs>
 <g id="Логотип">
  <metadata id="CorelCorpID_0Corel-Layer"/>
  <path class="fil0" d="M2264.12 3795.62l13.56 3.64 -8.55 10.4 -5.01 -14.04zm-220.36 -3711.22l109.48 0c507.77,23.22 989.34,250.98 1344.37,589.13 285.98,272.4 559.66,734.4 587.76,1119.48 12,164.27 23.33,60.74 71.41,153.36 -28.54,66.8 -65.21,30.34 -60.26,102.21 5.21,75.64 1.78,80.97 -5.13,154.54l65.8 68.81c-55.37,103.35 -55.06,-16.39 -72.85,166.9 -14.39,148.32 -106.43,427.77 -171.33,556.49 -107.92,213.97 -247.74,390.05 -422.81,556.88 -1346.86,1283.63 -3245.82,223.93 -3392.4,-1122.45 -16.64,-152.94 -28.53,-71.2 -71.39,-154.62 61.4,-103.34 59.78,-18.34 60.08,-173.23 0.28,-143.6 -8.14,-64.27 -57.02,-155.43 60.84,-94.77 54.12,-28.7 69.89,-170.19 7.98,-71.57 19.12,-131.82 40.74,-201.08 39.42,-126.21 71.06,-233.57 133.55,-352.59 220.33,-419.62 566.11,-763.28 1012.17,-955.14 122.75,-52.81 242.02,-93.38 373.55,-124.02 93.26,-21.73 267.15,-51.58 384.39,-59.05zm-108.14 3753.56c89.65,-66.96 78.36,-46.16 155.78,-138.69 62.52,81.63 82.39,80.41 160.44,138.69 -54.57,29.78 -66.7,6.77 -115.98,-25.82 -46.68,60.4 11.72,36.28 -49.53,84.68 -34.92,-42.1 -25.67,-30.56 -33.46,-85.88 -42.18,33.3 -65.81,55.1 -117.25,27.02zm-41.92 -42.34l4.43 4.21c-0.3,-0.27 -5.9,-2.8 -4.43,-4.21zm829.74 -42.33c16.4,40.29 -12.64,8.85 28.37,38.71 -125.74,25.16 -407.76,149.46 -619.77,126.99 61.4,-99.82 88.92,28.08 190.08,-96.35 249.52,64.4 289.55,-15.88 401.32,-69.35zm-459.32 42.33l-13.55 -3.62 8.54 -10.42 5.01 14.04zm-325.97 -14.12l-3.82 12.91 -10.92 -8.13 14.74 -4.78zm281.52 -14.09l13.55 3.62 -8.54 10.42 -5.01 -14.04zm-251.88 0l-29.64 14.09 29.64 -14.09zm251.88 0l-14.82 -14.12 14.82 14.12zm-237.06 -14.12l-14.82 14.12 14.82 -14.12zm755.64 -14.11l-14.81 14.11 14.81 -14.11zm-563.02 -14.11l29.62 28.22 -27.18 -1.41 -2.44 -26.81zm-177.82 14.11l-14.8 14.11 14.8 -14.11zm-563.02 -14.11c56.96,35.88 235.66,200.23 434.76,87.07l37.96 67.16 116.65 -6.02 30.85 46.22c-137.94,13.89 -468.2,-63.39 -605.41,-123.88l2.51 -24.54c-1.52,-9.44 -10.14,-21.18 -17.32,-46.01zm1377.94 0l-3.8 12.9 -10.94 -8.13 14.74 -4.77zm-1437.21 0l13.54 3.63 -8.54 10.41 -5 -14.04zm1363.13 14.11l29.64 -42.34 -29.64 42.34zm-563.02 -14.11l-14.82 -14.12 14.82 14.12zm-889.02 -14.12l13.55 3.64 -8.54 10.41 -5.01 -14.05zm711.2 28.23c11.81,-41.51 1.66,-29.69 44.46,-56.45 -11.8,41.5 -1.64,29.69 -44.46,56.45zm-592.66 -56.45l29.64 42.34 -29.64 -42.34zm1377.96 -14.12l-14.82 28.23 14.82 -28.23zm-726.02 -14.09l-14.82 28.21 14.82 -28.21zm-651.94 28.21l-15.47 -25.54 15.47 25.54zm1377.96 -14.12l6.9 -28.21 -6.9 28.21zm-726.02 -14.09c2.28,-24.47 34.07,-141.28 40.64,-154.03 13.73,121.79 39.43,117.53 63.08,210.46 -42.82,-29.06 -41.44,-59.83 -69.01,-96.36l-34.71 39.93zm963.08 -183.46c41.74,9.64 50.13,22.7 89.53,27.59 35.48,4.41 76.9,0.12 116.63,4.27 -42.52,62.27 -256.52,181.16 -335.7,220.94 10.55,-113.21 70.64,31.76 70.28,-154.01 19.66,-49.4 20.34,-22.48 70.27,-60.07l-11.01 -38.72zm-1733.56 239.89c-59.95,-13.84 -307.21,-169.18 -339.5,-208.03 43.16,-4.5 77.11,-0.42 117.7,-3.26 55.25,-3.87 52.4,-16.85 103.28,-28.6l-15.6 37.1 76.79 45.2c-19.22,66.38 -34.15,129.91 54.8,117.68l2.53 39.91zm1733.56 -239.89l-13.54 -3.62 8.53 -10.41 5.01 14.03zm-1852.08 0l3.81 -12.9 10.94 8.14 -14.75 4.76zm1540.92 -183.44c-11.95,537.84 -526.1,429.26 -411.05,142.32 0.07,0.1 16.3,215.28 194.38,145.62 148.68,-58.17 100.66,-202.89 96.87,-232.7 42.47,-22.39 61.51,-18.91 119.8,-55.24zm-1244.58 0c67.62,42.12 44.9,38.32 130.8,44.75 -49.5,283.24 176.48,282.26 244.39,213.79 54.95,-55.41 21.05,-94.13 34.59,-129.13 115.52,145.25 -81.37,290.4 -220.25,240.46 -152.34,-54.79 -141.53,-259.01 -189.53,-369.87zm1244.58 0l3.82 -12.9 10.94 8.14 -14.76 4.76zm-740.82 -28.22l235.81 0.53c-84.57,114.35 -87.75,59.79 -106.27,224.03 -16.93,-32.86 -14.32,-77.95 -40.7,-125.74 -33.77,-61.16 -59.12,-59.11 -88.84,-98.82zm251.88 -14.11l4.42 4.21c-0.29,-0.27 -5.9,-2.8 -4.42,-4.21zm177.79 0c43,-26.04 103.16,-11.7 163.75,-13.38 85.23,-2.37 70.64,-15.88 128.79,-55.97l3.03 65.71c-102.47,94.97 -163.24,3.75 -295.57,3.64zm-918.63 -155.22l194.83 94.81c-101.15,3.88 -141.98,-18.75 -194.83,-94.81zm1759.39 170.54c3.5,115.91 -172.65,86.78 -209.55,-9.82 -34.24,-89.59 17.4,-195.19 109.09,-231.83 226.34,-90.43 410.78,143.56 271.06,323.9 -2.31,-82.32 39.62,-137.87 -30.1,-227.77 -47.92,-61.83 -120.33,-94.73 -202.22,-73.02 -220.78,58.49 -105.47,333.3 61.72,218.54zm-2459.58 82.25c-103.49,-73.24 -62.55,-383.72 212.45,-339.62 208.47,33.43 255.22,353.06 -12.21,323.09 -36.67,-34.46 -38.51,-30.97 -44.46,-79.83 26.64,18.35 42.3,48.42 99.92,41.12 76.05,-19.6 88.82,-69.04 88.89,-141.11 -18.03,-129.66 -396.42,-229.92 -344.59,196.35zm552.03 -365.68l148.16 112.89 -41.95 1.05 -8.07 54.93 -98.14 -168.87zm0 0l-14.82 -14.11 14.82 14.11zm2370.68 -56.45c-4.18,44.11 -31.8,81.93 -59.28,115.3l-42.89 -48.9 102.17 -66.4zm-814.92 28.23c-26.07,37.49 -55.7,61.19 -83.09,104.3 -24.48,38.52 -43.37,89.36 -61.29,120.27 -5.86,-52.08 5.49,-45.89 -18.61,-85.89 -84.48,62.13 -91.69,111.27 -220.97,97.58 38.9,-25.99 135.67,-63.18 197.61,-103.3 50.73,-32.84 147.29,-122.9 186.35,-132.96zm-1570.58 14.11l-14.82 -14.11 14.82 14.11zm-829.74 -28.23l100.94 48.54 -40.09 53.73c-38.39,-30.07 -50.06,-59.9 -60.85,-102.27zm2415.12 0l-14.8 14.12 14.8 -14.12zm14.82 -14.11l-14.82 14.11 14.82 -14.11zm-2429.94 14.11l-13.53 -3.62 8.52 -10.42 5.01 14.04zm3215.24 -14.11l3.8 -12.9 10.94 8.12 -14.74 4.78zm-785.3 0c26.38,-50 40.64,-68.36 88.9,-98.78 21.17,47.61 -8.54,11.68 43.19,38.7l-132.09 60.08zm-1733.54 -98.78l118.52 127.01 -158.22 -93.33c48.24,-22 18.53,13.93 39.7,-33.68zm1822.44 0l3.82 -12.89 10.94 8.12 -14.76 4.77zm-1822.44 0l-14.82 -14.1 14.82 14.1zm-14.82 -14.1l-13.55 -3.64 8.54 -10.42 5.01 14.06zm1866.89 -28.23l-3.8 12.91 -10.94 -8.14 14.74 -4.77zm0 0l3.82 -12.9 10.93 8.13 -14.75 4.77zm-1896.52 -14.11l13.54 3.62 -8.53 10.42 -5.01 -14.04zm0 0l-13.56 -3.64 8.54 -10.4 5.02 14.04zm1926.16 -28.23l-3.81 12.91 -10.93 -8.14 14.74 -4.77zm0 0l3.81 -12.89 10.94 8.12 -14.75 4.77zm-1955.8 -14.11l4.42 4.21c-0.29,-0.27 -5.89,-2.8 -4.42,-4.21zm266.7 1001.9c-65.91,-16.99 -69.29,-50.49 -77.89,-111.69 -57.48,39.48 -19.74,20.91 -41.91,14.12 4.35,-77.67 32.84,-95.35 43.18,-154.01 -65.42,12.47 -8.24,22.47 -83.82,23.38 7.16,-34.59 134.97,-180.08 74.84,-282.94 -18.08,-30.9 1.29,-11.99 -32.93,-25.08 0,354.3 -411.11,347.49 -444.04,112.3 -16.7,-119.4 66.55,-272.59 208.2,-212.66 63.73,26.98 86.25,114.19 32.16,147.82 -42.95,26.69 -128.82,-0.91 -64.3,-86.16 -188.22,-5.18 -87.87,288.44 92.58,225.25 261.72,-91.67 102.98,-487.97 -216.34,-404.41 -149.31,39.09 -163.35,143.07 -173.84,271.89 -73.47,-11.75 -127.56,-96.8 -111.16,-161.16 25.07,-98.43 105.53,-94.39 171.7,-129.13 -117.04,-12.21 -214.26,13.05 -276.35,-106.12 -50.04,-96.06 0.3,-196.93 85.01,-250.29 -10.14,108.36 -42.62,215.45 104.79,267.07 209,73.2 367.28,-103.16 647.52,173.55 79.28,78.29 92.73,189.7 113.19,287.3 20.31,96.81 41.42,217.06 103.1,296.93 161.36,208.91 511.51,31.17 419.23,-173.1 -49.83,-110.29 -231.76,-161.73 -228.32,-34.52 148.25,-75.21 134.3,128.73 11,114.1 -72.62,-18.93 -129.06,-80.89 -94.93,-160.53 36.67,-85.6 112.45,-64.75 167.74,-103.96 -95.22,-35.4 -152.08,14.32 -251.87,25.82 -48.02,-34.71 -69.71,-52.23 -70.28,-111.69 61.21,9.63 39.14,44.38 116.38,53.65 83.34,10.02 284.32,-36.24 397.24,129.68 259.75,381.68 -500.1,673.66 -599.76,176.1 -14,-69.89 21.67,-420.82 -153.47,-531.19 6.15,67.39 41.09,82.87 65.22,149.56 48.76,134.73 39.15,246.43 38.47,386.69 -0.56,115.88 5.93,90.14 29.66,183.43zm2237.31 -1143c79.64,50.17 147.01,161.71 102.53,252.81 -58.73,120.3 -166.6,105.97 -279.06,117.71 60.4,31.72 133.13,33.36 156.64,114.49 22.12,76.34 -19.96,161.5 -96.09,175.8 -33.01,-416.55 -439.37,-307.9 -509.11,-127.26 -47.58,123.22 34.9,287.07 174.7,266.59 170.84,-25.02 172.35,-235.4 36.81,-232.06 39.91,71.37 33.71,103.21 -71.55,91.52 -80.67,-105.36 30.63,-208.53 155.51,-148.16 102.5,49.54 115.17,190.34 63.14,278.99 -102.49,174.6 -423.44,106.48 -429.9,-183.65 -93.77,100.46 11.03,222 57.99,306.81 -67.86,5.92 -34.11,10.72 -83.81,-23.38 -1.47,48.38 28.61,93.89 41.91,141.1 -39.21,18 3.42,11.01 -58,1.21 -4.9,59.39 -4.07,89.43 -61.81,110.48 7.19,-76.83 30.44,-82.53 29.85,-183.25 -2.97,-508.69 41.88,-294.19 103.51,-536.43 -144.69,91.18 -145.17,282.21 -147.57,438.01 -2.16,139.67 -88.99,331.77 -253.02,351.7 -510.99,62.1 -505.78,-542.6 -147.64,-549.81l-13.97 24.36c126.9,47.24 179.41,27.21 158.33,197.79 -58.78,64.35 -86.13,73 -171.45,43.54 -32.63,-85.7 -13.75,-153.95 97.37,-97.57 3.5,-129.25 -182.04,-71.8 -223.84,10.18 -111.94,219.44 215.38,412.4 403.37,200.71 153.41,-172.73 45.47,-678.72 493.87,-743.2 160.04,-23.01 421.77,66.44 486.96,-129.04 25.59,-76.75 2.05,-99.14 -15.67,-169.99zm-219.7 -1.21c273.26,-57.06 218.57,193.52 136.07,231.99 -65.72,30.64 -278.27,23.86 -359.68,21.63l62.56 -67.1c72.32,48.63 149.81,96.09 229.6,9.38 99.62,-108.25 -18.33,-144.81 -68.55,-195.9zm-2695.36 75.39c-22.99,185.96 130.02,196.14 257.8,111.67 30.12,36.02 25.85,38.25 63.08,64.52 -90.18,9.4 -349.13,19.01 -399.54,-52.1 -81.38,-114.82 -4.37,-256.68 162.47,-194.65 -21.22,27.22 -55.11,42.83 -83.81,70.56zm-122.34 -74.18l-14.82 14.11 14.82 -14.11zm3037.4 0l-14.82 -14.12 14.82 14.12zm-3022.6 -14.12l-14.8 14.12 14.8 -14.12zm3007.78 0l-14.8 -14.11 14.8 14.11zm-2992.96 -14.11l-14.82 14.11 14.82 -14.11zm2978.16 0l-13.55 -3.62 8.54 -10.42 5.01 14.04zm-2963.34 -14.11l-14.82 14.11 14.82 -14.11zm3230.03 -42.33l-1.66 55.32 -41.5 -20.08 43.16 -35.24zm-3511.55 14.11c33.91,22.8 39.95,14.16 3.81,41.12l-3.81 -41.12zm281.52 28.22c105.23,-140.6 89.59,21.14 122.34,-281.02 92.32,46.61 1.7,90.43 60.38,177.55 34.72,51.55 92.91,69.79 148.34,101.05l16.04 -53.75c34.48,73.31 56.87,95.29 76.67,174.69 20.96,84.11 25.81,89.52 78.73,160.08 -175.75,-18.93 -113.14,-102.24 -156.64,-191.51 -44.97,57.76 3.68,125.11 -109.64,138.85 -101.28,12.27 -140.84,-24.08 -107.95,-117.88 101.21,-32.11 47.76,28.15 113.87,23.78 12.84,-48.46 -16.6,-89.78 -60.75,-121.15 -60.58,-43.01 -117.95,-25.25 -181.39,-10.69zm2578.1 -112.9l4.41 4.22c-0.28,-0.28 -5.88,-2.81 -4.41,-4.22zm-2237.31 -14.09c0,-33.27 18.24,-1.55 8.88,0 -0.18,0.03 -8.88,35.98 -8.88,0zm47.86 -66.83l81.96 -52.85c29.17,46.15 37.15,112.26 56.97,167.55 134.5,375.38 524.21,644.29 939.79,658.25 184.1,6.18 508.29,-109.36 655.19,-250.98 92.55,-89.23 140.57,-129.12 209.76,-237.67 108.45,-170.16 92.27,-254.37 133.74,-327.39l95.16 38.43c20.74,266.7 -436.69,876.93 -1079.54,875.83 -289.8,-0.49 -590.93,-119.06 -796.03,-314.36l-166.81 -208.02c-55.85,-92.37 -142.73,-245.09 -130.19,-348.79zm3034 -31.95c0.18,453.68 -284.58,909.92 -611.18,1224.14 -521.17,501.42 -1404,705.23 -2110.23,365.78 -231.88,-111.45 -387.64,-197.61 -571.6,-372.84 -215.34,-205.1 -458,-547.71 -544.71,-835.89 -42.39,-140.88 -52.5,-199 -63.48,-336.8l5.84 -45.74c35.46,61.61 -11.58,99.77 32.96,166.16 38.04,56.72 79.8,47.92 126.7,80.1 -21.02,96.24 -105.28,186.76 43.91,265.41 74.64,39.33 52.65,37.41 86.74,114.94 23.96,54.5 49.62,80.62 76.3,124.9 24.95,41.42 29.74,98.39 55.98,144.23 32.02,55.93 65.15,54.49 112.47,90.45 144.73,109.97 163.76,255.2 717.8,515.82 586.22,275.75 1448.34,117.22 1883.24,-304.67 37.04,-35.93 84.26,-61.33 110.26,-92.54 147.92,-177.65 153.52,-134.91 208.91,-196.15 34.35,-37.97 127.01,-342.93 222.48,-394.89 156.04,-84.89 72.05,-153.62 52.32,-274.11 57.53,-30.79 103.25,-17.92 134.55,-84.15 59.01,-124.86 -40.37,-129.55 30.74,-154.15zm-192.62 183.44c5.35,-55.91 25.9,-69.33 -18,-123.83 -30.04,-37.32 -61.27,-54.74 -105.6,-50.34l-16.01 80.71c-119.64,36.63 -125.39,-47.89 -94.91,-129.91 167.15,-57.73 280.72,40.85 260.35,205.62l-25.83 17.75zm-3511.55 14.11l-26.92 -16.28c-19.74,-170.08 44.62,-254.93 230.54,-234.09 60.54,56.86 62.34,52.52 30.9,135.07l-81.21 18.97 -32.2 -99.09c-174.6,23.88 -124.28,161.51 -121.11,195.42zm3213.95 24.6c-111.08,-12.26 -242.51,-13.76 -233.25,142.3 50.2,-15.03 49.89,-65.16 104.94,-30.91 117.89,73.35 -136.34,264.01 -200.19,-21.89 -18.58,35.54 -20.45,85.53 -39.63,126.75 -33.15,71.28 -54.19,40.66 -115.74,68.38 5.38,-35.61 54.75,-93.42 70.5,-153.79 20.19,-77.31 32.88,-95.52 62.85,-168.34 27.39,47.41 -8.6,23.56 36.84,37.5 65.78,-35.78 104.31,-37.47 142.94,-103.77 57.1,-98.02 -21.25,-130.34 64.48,-173.63 -21.1,184.38 11.8,153.11 106.26,277.4zm90.17 -81.05c107.62,-0.09 80.33,-4.63 128.27,-68.13 108.63,128.94 -43.22,127.11 -66.46,143.53 59.94,72.82 183.2,2.28 156.63,217.31 -35.75,34.15 -37.16,37.6 -82.55,43.54 -8.43,-103.62 21.87,-121.19 -154.6,-261.98 -98.34,-78.45 -169.88,-137.19 -130.35,-272.54 60.48,-207.13 511.9,-114.07 607.12,11.21 -133.99,13.97 -99.87,-25.03 -190.08,-35.09 64.47,85.96 139.9,196.94 -1.27,264.49 36.38,-143.83 -30.12,-271.45 -192.57,-282.71 -237.33,-16.42 -213.89,204.34 -74.14,240.37zm-3363.39 42.34c-189.08,-48.75 -25.72,-232.32 -1.27,-264.49 -99.42,-2.72 -42.8,50.45 -190.08,35.09 73.88,-97.21 170.95,-109 293.28,-125.13 101.04,-13.33 269.49,-17.99 307.82,105.41 53.48,172.12 -97.59,248.03 -243.65,393.19 -63.35,62.94 -28.9,97.87 -61.1,153.47 -227.75,-144.59 72.04,-230.62 99.9,-264.48 -49.14,-34.7 -31.66,-9.42 -91.44,-28.23 -20.58,-58.72 -16.28,-76.53 19.89,-120.14l43.39 71.89c153.5,14.12 191.69,-44.03 175.05,-178.73 -174.92,-168.92 -443.57,30.86 -351.79,222.15zm3643.2 -377.32c25,-34.81 101.06,-65.82 132.52,-71.81l2.28 122.16 -134.8 -50.35zm-3787.56 51.55l-3.3 -124.59 120.3 51.93c-24.02,56.29 -49.32,38.33 -117,72.66zm3433.67 -69.34c14.8,-14.1 45.26,18.18 16.61,7.36 -0.33,-0.12 -36.62,11.7 -16.61,-7.36zm-2978.16 0c14.8,-14.1 45.27,18.18 16.63,7.36 -0.35,-0.12 -36.62,11.7 -16.63,-7.36zm-311.15 0c1.43,-1.37 4.28,2.16 4.3,4.08 0,0.79 1.81,1.74 1.75,1.68 -0.35,-0.33 -25.94,13.2 -6.05,-5.76zm2741.09 -127c-95.38,195.24 32.97,219.47 -2.48,349.62 -236.63,868.9 -1321.11,952.29 -1735.93,275.9 -240.97,-392.92 -56.32,-340.62 -84.61,-540.3 -8.4,-59.44 -128.99,-139.34 125.02,-502.93 342.58,-490.41 1172.23,-570.31 1585.56,73.24 44.23,68.87 145.32,277.16 112.44,344.47zm134.62 52.81c171.58,17.91 234.23,-97.94 370.41,72.98 -60.4,186.19 -264.11,78.41 -370.41,89.49 50.92,61.49 122.88,22.88 202.35,98.78 10.71,85.3 -12.75,134.25 -85.08,179.82 -5.95,-267.44 -259.39,-143.14 -222.25,-409.22 37.63,-132.42 217.33,-89.09 222.25,-310.44 69.97,44.1 95.27,98.7 85.08,179.81 -66.84,69.37 -159.51,47.7 -202.35,98.78zm-2238.59 -278.59c-0.5,252.46 219.22,167.06 223.69,352.69 4.92,204.29 -223.45,109.6 -223.69,366.97 -84.96,-40.64 -95.93,-92.05 -85.1,-179.82 71.07,-67.85 139.83,-41.14 187.55,-98.78 -102.51,-10.69 -288.85,96.32 -365.34,-84.66 105.13,-174.69 248.79,-65.65 365.34,-77.81 -49.44,-59.7 -117.54,-28.69 -187.55,-99.99 -11.33,-94.35 4.94,-128.09 85.1,-178.6zm44.46 56.44c0,-33.27 18.24,-1.55 8.88,0 -0.18,0.03 -8.88,35.99 -8.88,0zm2237.31 -14.11c0,-33.25 18.24,-1.55 8.9,0 -0.18,0.03 -8.9,35.99 -8.9,0zm651.93 -70.55c99.39,106.47 -34.15,292.58 -234.52,223.35l-20.3 -105.96c130.48,-94.04 111.19,26.14 135.02,67.26 46.03,-11.94 71.8,-23.87 101.76,-60.88 43.97,-54.31 23.37,-67.95 18.04,-123.77zm-3511.55 0c-24.07,95.11 5.59,166.48 114.72,179.81l30.88 -93.02 89.53 11.64c70.4,194.76 -145.75,147.41 -208.79,102.27 -69.28,-49.6 -55.97,-95.32 -55.97,-172.48 12.45,-44.26 -10.24,-13.46 29.63,-28.22zm3511.55 0l-42.94 -31.92 38.99 -23.57 3.95 55.49zm-281.51 -42.34l-29.64 14.11 29.64 -14.11zm-3230.04 42.34l1.66 -55.32c38.65,27.28 24.3,27.51 -1.66,55.32zm3244.86 -56.45l-14.82 14.11 14.82 -14.11zm-2963.34 14.11l-14.82 -14.11 14.82 14.11zm2978.14 -28.23l-14.8 14.12 14.8 -14.12zm-2992.96 14.12l-14.82 -14.12 14.82 14.12zm3007.78 -28.21l-14.82 14.09 14.82 -14.09zm-3022.6 14.09l-14.8 -14.09 14.8 14.09zm3108.96 42.34c4.23,2.3 198.01,19.43 71.55,138.69 -15.03,-19.92 -84.6,-138.92 -192.3,-30.34 -136.36,137.46 97.2,304.54 275.84,149.82 77.08,-66.76 77.64,-140.03 54.9,-229.94 177.51,84.92 14.83,208 3.8,281.01 93.02,-46.73 65.42,-64.35 187.55,-51.61 -112.35,147.82 -545.28,201.99 -603.99,22.42 -47.51,-145.34 23.08,-193.34 120.23,-276.31 185.06,-158.03 151.98,-151.44 161.59,-269.43 80.54,10.53 110.42,81.95 77.79,159.34 -29.61,70.21 -113.13,56.4 -156.96,106.35zm-3305.11 -267.8c17.88,177.25 46.36,151.19 163.12,256.92 91.3,82.67 165.13,134.17 134.53,276.83 -46.16,215.14 -505.14,120.44 -607.8,2.16 67.6,-36.94 124.07,7 191.34,41.13 -6.83,-45.2 -195.76,-229.56 3.81,-281.01 -45.2,92.68 -11.63,189.24 79.63,248.7 106.43,69.38 186.05,54.27 272.44,-26.28 47.51,-93.39 -91.9,-301.78 -218.72,-107.09 -34.34,-41.95 -42.03,-60.31 -19.3,-119.61 59.4,-20.54 40.54,6.49 91.13,-28.53 -0.07,-0.06 -337.68,-127.03 -90.18,-263.22zm714.74 56.13c1.43,-1.35 4.28,2.16 4.28,4.1 0,0.79 1.83,1.72 1.77,1.67 -0.35,-0.33 -25.96,13.19 -6.05,-5.77zm1940.99 -14.11l4.42 4.21c-0.29,-0.27 -5.9,-2.8 -4.42,-4.21zm-1911.35 -14.1l-3.82 12.89 -10.93 -8.12 14.75 -4.77zm1896.52 -14.11l13.56 3.62 -8.54 10.42 -5.02 -14.04zm-1896.52 14.11l3.8 -12.91 10.94 8.14 -14.74 4.77zm1896.52 -14.11l-14.81 -14.12 14.81 14.12zm503.77 253.99c-54.32,78.21 -144.31,153.61 -88.89,268.11 -80.69,-20.91 -23.41,-85.57 -68.68,-174.48 -26.15,-51.36 -90.94,-76.04 -142.56,-104.1 -45.44,13.92 -9.45,-9.92 -36.84,37.49 -25.83,-62.76 -48.15,-88.31 -62.06,-154.99 -21.54,-103.28 -21.62,-74.14 -73.83,-150.63 147.89,-15.3 116.43,99.21 157.91,178.62 60.39,-270.39 301.21,-116.49 208.94,-28.66 -50.41,47.97 -75.25,-12.65 -113.69,-24.16 -8.42,141.68 95.63,152.8 219.7,152.8zm-533.4 -296.33l14.82 28.22 -14.82 -28.22zm-1837.26 14.11l-3.82 12.91 -10.94 -8.14 14.76 -4.77zm-548.22 268.11c206.32,47.34 258.27,-70.97 242.14,-131.84 -66.11,-4.36 -12.66,55.88 -113.87,23.79 -32.89,-93.82 6.67,-130.17 107.95,-117.88 113.32,13.73 64.67,81.07 109.64,138.85 33.12,-67.95 -7.23,-190.17 141.82,-177.41 -42.45,76.65 -44.2,68.46 -66.72,157.41 -17.58,69.45 -42.01,96.33 -69.17,162.32l-16.74 -53.62c-59.42,32.05 -117.61,50.29 -152.33,101.84 -58.68,87.14 31.94,130.96 -60.38,177.55 -32.57,-300.41 -12.33,-121.41 -122.34,-281.01zm563.04 -282.22l-14.82 14.11 14.82 -14.11zm2049.78 54.02l-49.94 -48.88c77.24,-9.9 263.62,-35.25 337.38,-1.5 55.88,52.48 100.9,99.4 64.47,180.74 -39.02,87.15 -111.17,82.2 -192.74,51.88 61.89,-43.49 163.93,-88.82 69.82,-191.06 -70.3,-76.39 -157.9,-38.16 -228.99,8.82zm-2538.74 87.1c10.88,38.27 5.52,30.39 40.94,60.59 45.89,39.11 36.43,12.57 38.22,43.01 -154.25,49.04 -234.94,-88.41 -154,-203.1 61.23,-86.75 317.46,-45.07 384.72,-37.98 -32.44,25.14 -19.74,16.65 -48.26,50.38 -112.16,-74.13 -261.46,-82.3 -261.62,87.1zm3007.8 -239.9l13.53 3.64 -8.53 10.4 -5 -14.04zm-2518.84 98.78c-21.17,-47.6 8.54,-11.67 -43.19,-38.7l146.89 -74.19 -103.7 112.89zm118.52 -127.01l-14.82 14.12 14.82 -14.12zm14.82 -14.09l-14.82 14.09 14.82 -14.09zm14.82 -14.12l-14.82 14.12 14.82 -14.12zm2370.68 56.44l-101.92 -64.66 38.76 -53.3 63.16 117.96zm-3228.77 -3.62c23.96,-42.86 33.95,-81.1 72.81,-111.68l43.54 55c-40.04,15.92 -76.03,51.14 -116.35,56.68zm620.23 626.97l-87.37 -44.29c-17.82,-201.35 221.45,-472.58 358.43,-603.9 175.12,-167.89 477.18,-271.9 722.4,-271.57 257.19,0.35 538.4,100.05 730.02,264.43 133.58,114.62 377.83,438.79 363.12,608.96l-95.42 56.99c-82.19,-349.81 -263.49,-588.27 -602.29,-742.41 -189.93,-86.4 -371.03,-101.82 -574.66,-62.3 -219.83,42.67 -313.54,116.26 -472.65,227.18 -71.06,49.54 -163.84,168.86 -207.18,240.14 -29.12,47.92 -57.56,102.27 -76.45,152.97 -21.79,58.47 -29.88,129.41 -57.95,173.8zm1912.14 -524.57c-78.04,-49.17 -151.01,-150.63 -228.15,-206.04 -96.81,-69.5 -197.01,-106.05 -274.33,-157.23 129.28,-13.69 136.49,35.45 220.97,97.57 24.1,-39.99 12.75,-33.8 18.61,-85.87 81.72,141.09 111.25,239.32 291.27,312.87 -40.89,29.77 -12.15,-1.74 -28.37,38.7zm-1674.28 -155.22c37.38,-70.88 60.2,-88.13 92.72,-168.12l18.71 57.74c112.17,-31.7 75.13,-115.44 242.9,-97.67 -53.31,26.38 -123.54,56.6 -179.49,92.33 -42.47,27.1 -146.15,108.32 -174.84,115.72zm459.31 -268.11c-45.89,27.81 -114.82,9.49 -178.32,13.61 -79.95,5.19 -74.48,32.24 -129.01,69.84 -19.27,-204.04 208.08,-83.27 307.33,-83.45zm429.69 -14.11l4.42 4.2c-0.29,-0.28 -5.9,-2.8 -4.42,-4.2zm-251.88 0l-3.82 12.91 -10.92 -8.14 14.74 -4.77zm0 0c30.53,-25.94 62.88,-47.4 84.59,-88.78 26.98,-51.49 28.36,-103.6 44.95,-135.8 18.52,164.26 21.7,109.7 106.25,220.94l-235.79 3.64zm740.82 -28.23l13.56 3.64 -8.55 10.41 -5.01 -14.05zm-1229.78 -14.11l-6.9 28.23 6.9 -28.23zm1929.99 -41.12c141.23,182.28 -48.63,408.37 -265.11,332.35 -86.64,-30.41 -145.52,-144.95 -119.04,-229.72 28.51,-91.17 217.4,-147.89 213.55,-20.38 -187.14,-128.47 -280.35,218.31 -25.69,228.01 74.22,2.84 134.37,-35.34 172.31,-90.8 65.02,-95.08 18.42,-141.26 23.98,-219.46zm-2374.48 55.23c-71.11,0 -56.04,10.88 -99.92,41.14 5.95,-48.87 7.79,-45.37 44.46,-79.84 254.82,-28.56 234.75,268.57 17.01,327.43 -232.55,62.87 -345.22,-253.4 -217.25,-343.96 -13.46,120.91 -13,303.81 166.89,310.31 195.45,7.05 242.88,-215.37 88.81,-255.08zm1985.43 -183.44l-3.8 12.91 -10.94 -8.14 14.74 -4.77zm-1852.08 0l13.54 3.64 -8.54 10.4 -5 -14.04zm1540.92 183.44c-58.29,-36.31 -77.33,-32.83 -119.8,-55.23 4.59,-36.11 52.92,-175.06 -99.55,-230.15 -178.37,-64.43 -191.63,142.94 -191.7,143.06 -114.11,-284.58 399.18,-392.51 411.05,142.32zm-1229.78 -14.11c0.12,-116.05 58.02,-314.01 187.26,-358.29 159.34,-54.6 324.56,151.59 201.79,244.19 19.73,-159.3 -96.02,-188.64 -172.11,-159.47 -124.19,47.61 -118.91,140.05 -100.94,242.93l-116 30.64zm1303.88 -366.88l15.47 25.55 -15.47 -25.55zm-1377.96 -14.12l-6.9 28.21 6.9 -28.21zm1363.14 -14.11l14.82 28.23 -14.82 -28.23zm-1600.2 225.78c-29.37,-6.65 -65.96,-21.5 -91.58,-25.65 -39.31,-6.36 -86.61,-1.74 -129.4,-6.2 73.89,-51.94 249.47,-187.26 339.5,-208.04l-1.1 39.96c-95.18,9.19 -77.29,44.79 -56.89,116.47l-73.07 42.11 12.54 41.35zm1852.08 0l15.6 -37.11c-54.52,-39.19 -55.2,-12.28 -74.86,-61.67 0.36,-185.78 -59.73,-40.81 -70.28,-154.01 70.88,35.6 299.64,167.62 335.7,220.94 -39.73,4.14 -81.15,-0.14 -116.63,4.27 -39.4,4.89 -47.79,17.95 -89.53,27.58zm-963.08 -183.44l32.99 41.01c36.64,-47.36 27.34,-75.19 85.55,-111.56 -27.72,96.43 -61.54,79.46 -77.9,224.56 -6.57,-12.74 -38.36,-129.55 -40.64,-154.01zm-651.94 -28.23l29.64 -42.32 -29.64 42.32zm2207.68 1100.68c15.88,-63.53 74.26,-161.04 -62.88,-264.66 -144.26,-109 -661.81,137.79 -778.26,-401.82 -37.17,-172.17 -63.04,-464.01 -314.5,-463.65 -245.5,0.35 -361.56,305.11 -58.04,383.45l78.94 -53.14c-39.35,-22.39 -167.27,28.32 -107.32,-129.1 92.69,-32.02 106.7,-19 171.45,43.55 25.11,203.09 -65.9,140.47 -156.62,203.19 91.16,64.37 324.8,-123.63 304.8,88.3 -162.28,-128.11 -337.46,33.47 -503.26,-179.1 -82,-105.11 -77.53,-348.64 178.36,-429.08 221.04,-69.49 371.68,62.5 421.13,253.25 27.25,105.15 -25.38,408.99 159.46,525.47 -64.74,-254.47 -103.73,-11.72 -103.3,-550.74 0.09,-102.91 -35.1,-118.18 -41.06,-181.83 66.37,45.76 66.6,48.02 72.81,123.37 61.42,-9.8 18.79,-16.77 58,1.2 -13.3,47.23 -43.38,92.73 -41.91,141.12 47.85,-24.27 32.34,-24.8 83.81,-23.38 -49.31,89.04 -148.73,209.59 -57.99,306.81 5.95,-267.13 283.18,-350.6 411.8,-208.73 65.18,71.85 64.35,202.41 -2.35,274.12 -78.76,84.67 -210.72,64.54 -228.12,-62.64l50.01 -63.27c82.03,22.58 89.56,35.57 50.51,99.5 131.76,2.27 135.22,-192.49 -24.06,-229.19 -263.79,-60.76 -298.65,481.04 124.85,413.52 153.5,-24.47 190.29,-143 196.82,-277.62 70.96,13.6 115.52,89.05 100.08,164.43 -20.22,98.81 -95.45,91.88 -160.3,126.72 125.53,10.72 212.27,-3.03 276.97,119.7 48.68,92.38 -18.46,198.95 -99.83,250.25zm-3037.4 0c-82.96,-30.24 -150.92,-164.59 -104.28,-254.52 47.28,-91.14 174.83,-146.55 278.25,-99.48 -9.17,-30.76 1.71,-18.7 -33.49,-33.33 -30.37,-12.6 -101.1,-10.73 -131.87,-101.82 -22.01,-65.19 42.07,-160.17 107.37,-171.66 11.19,137.28 20.36,239.79 185.56,274.85 144.18,30.58 269.94,-27.12 319.69,-151.28 48.59,-121.22 -32.36,-261.74 -161.92,-261.8 -148.25,-0.06 -216.13,230.31 -61.82,232.16 -7.03,-39.72 -25.17,-37.61 -2.24,-72.09 18.07,-27.19 54.35,-32.85 82.63,-15.27 49.94,31.04 30.77,128.96 -27.26,152.2 -145.49,58.27 -230.62,-91.86 -213.1,-217.05 32.4,-231.49 444.04,-241.95 444.04,112.3 33.88,-12.96 15.61,6.3 32.94,-25.11 54.3,-98.24 -37.98,-212.02 -90.93,-281.7 92.29,-8.06 30.37,11.07 101.16,20.96l-50.94 -150.95c28.67,-8.64 -9.07,-27.22 48.41,12.25 7.29,-52.71 21.16,-96.8 77.89,-111.66 -67.31,269.31 12.02,350.82 -68.17,570.06 -18.61,50.84 -52.29,98.94 -65.18,149.6 263.27,-165.88 6.52,-740.95 400.59,-789.7 500.56,-61.94 505.96,542.58 147.62,549.81l13.99 -24.36c-56.72,-21.17 -112.26,-22.1 -151.16,-70.82 -105.18,-131.72 134.07,-259.85 165.71,-142.08 8.03,29.91 4.25,69.86 -24.74,86.63 -62.71,36.26 -18.91,-19.6 -79.15,8.31 18.49,58.39 77.87,61.95 132,41.85 117.34,-43.55 189.05,-248.89 -16.04,-347.41 -98.92,-47.52 -243.58,-10.51 -301.86,72.07 -131.48,186.36 -74.08,448.41 -223.68,591.29 -296.72,283.36 -424.17,78.01 -650.86,170.37 -119.13,48.53 -128.01,176.86 -79.16,277.38zm711.18 -1128.9l3.82 -12.9 10.94 8.14 -14.76 4.76zm1437.23 -42.33c42.79,26.76 32.65,14.93 44.45,56.44 -42.81,-26.76 -32.66,-14.93 -44.45,-56.44zm-533.41 14.11l-14.8 14.12 14.8 -14.12zm-740.83 0l-14.81 14.12 14.81 -14.12zm-74.08 14.12l3.81 -12.91 10.94 8.13 -14.75 4.78zm829.73 -28.23l-14.82 14.11 14.82 -14.11zm14.82 -14.11l-14.82 14.11 14.82 -14.11zm-162.98 112.89l-103.72 -112.89c57.88,14.92 89.54,57.11 103.72,112.89zm162.98 -112.89l3.81 -12.91 10.93 8.13 -14.74 4.78zm-266.7 0l-14.82 -14.12 14.82 14.12zm296.34 -28.23l4.42 4.21c-0.29,-0.27 -5.9,-2.8 -4.42,-4.21zm-311.16 14.11l-13.55 -3.62 8.54 -10.42 5.01 14.04zm-44.45 -28.21c1.43,-1.37 4.28,2.16 4.3,4.08 0,0.79 1.81,1.73 1.75,1.69 -0.35,-0.35 -25.94,13.17 -6.05,-5.77zm44.45 -28.23c40.93,-24.3 59.07,-2.25 108.81,25.8 20.88,-42.62 -1.22,-35.71 39.37,-84.66 61.25,48.4 2.85,24.27 49.53,84.66 48.56,-32.09 59.45,-57.27 110.91,-20.97 -77.35,52.97 -95.78,56.04 -155.37,133.86 -76.27,-91.17 -76.04,-73.83 -153.25,-138.69zm785.29 84.67c-68.22,-17.59 -142.4,-136.17 -401.32,-69.35 -52.44,-41.07 -60.03,-87 -156.64,-45.96l-34.29 -49.92c161.65,-15.84 453.96,70.56 605.8,126.53l-13.55 38.7zm-1274.24 14.11c11.2,-48.5 22.08,-25.35 -13.54,-52.81 118.24,-23.67 412.31,-148.48 619.76,-127.01l-30.69 51.9 -111.98 -14.79 -43.33 69.87c-178.46,-78.71 -285.85,-11.82 -420.22,72.84zm-1141.7 1181.33c-53.48,35.7 -93.26,27.15 -127.84,79.02 -44.39,66.55 2.53,104.67 -32.9,166.22l-7.7 -34.49c22.76,-432.24 291.67,-880.6 602.66,-1176.87 164.12,-156.37 350.77,-271.1 559.17,-370.57 503.58,-240.34 1040.69,-228.67 1541.11,-14 198.2,85.03 426.56,217.18 581.79,363.14 326.66,307.17 618.5,785.01 618.33,1231.44 -71.32,-23.04 27.8,-30.29 -30.74,-154.15 -31.3,-66.24 -77.02,-53.36 -134.55,-84.15 18.05,-110.3 101.25,-188.46 -42.49,-269.37 -85.88,-48.35 -49.56,-29.92 -88.45,-113.32 -22.3,-47.88 -50.14,-84.38 -74.05,-127.04 -23.51,-41.96 -31.85,-107.64 -56.51,-143.73 -33.26,-48.69 -80.46,-61.22 -113.48,-89.48 -58.85,-50.34 -143.45,-142.05 -204.27,-200.58 -487.71,-469.24 -1266.83,-562.67 -1886.9,-322.41 -215.13,83.35 -338.03,186.53 -515.65,313.23 -97.86,69.82 -127.57,130.41 -204.7,200.14 -43.12,39 -78.35,44.23 -113.08,89.86 -39.35,51.65 -35.2,97.63 -58.43,141.91 -21.36,40.7 -53.5,73.05 -77.27,123.97 -27.5,58.91 -18.57,86.66 -78.48,122.81 -163.39,98.59 -87.46,143.01 -55.57,268.42z"/>
  <path class="fil1" d="M2291.03 2613.11l0 -45.69c93.66,0 139.7,-36.56 139.7,-111.19l-11.11 -708.23 -338.14 865.11 -44.45 0 -361.94 -851.4 -6.36 671.68c-1.58,89.86 52.4,134.03 158.75,134.03l0 45.69 -382.58 0 0 -45.69c96.84,0 147.64,-48.74 152.41,-146.22l12.69 -679.29 0 -15.23c0,-10.66 -1.58,-21.33 -3.18,-30.46 -3.17,-9.14 -9.51,-16.76 -20.64,-24.37 -11.11,-7.62 -28.56,-12.19 -49.2,-16.76 -20.64,-3.04 -49.22,-4.57 -85.73,-4.57l0 -47.21 327.03 0 320.67 772.2 306.38 -772.2 322.26 0 0 47.21c-34.93,0 -61.91,1.53 -82.55,6.1 -20.64,4.56 -34.93,12.18 -44.45,19.8 -11.11,9.13 -17.46,19.8 -19.05,30.46 -3.17,10.66 -4.76,22.84 -4.76,35.03l17.46 703.66c0,80.72 47.62,121.85 144.46,121.85l0 45.69 -447.67 0z"/>
 </g>
</svg>
